<?xml version="1.0" standalone="no"?>
<!DOCTYPE svg PUBLIC "-//W3C//DTD SVG 20010904//EN"
 "http://www.w3.org/TR/2001/REC-SVG-20010904/DTD/svg10.dtd">
<svg version="1.0" xmlns="http://www.w3.org/2000/svg"
 width="504.000000pt" height="504.000000pt" viewBox="0 0 504.000000 504.000000"
 preserveAspectRatio="xMidYMid meet">
<metadata>
Created by potrace 1.11, written by Peter Selinger 2001-2013
</metadata>
<g transform="translate(0.000000,504.000000) scale(0.100000,-0.100000)"
fill="#000000" stroke="none">
<path d="M2965 4830 c-179 -5 -229 -9 -270 -24 -79 -29 -136 -60 -195 -108
-95 -77 -145 -99 -241 -107 -76 -7 -96 -13 -178 -57 -201 -106 -359 -249 -616
-554 -180 -215 -303 -405 -358 -555 -13 -35 -65 -164 -88 -220 -5 -11 -23 -65
-39 -120 -67 -217 -137 -398 -207 -538 -23 -47 -137 -179 -254 -296 -68 -68
-266 -180 -417 -236 l-102 -38 0 -618 0 -617 103 -6 c56 -3 153 -9 215 -12
l112 -7 0 -27 c0 -17 18 -54 44 -92 24 -34 61 -93 81 -130 44 -81 123 -164
163 -173 16 -3 42 -20 58 -37 67 -71 197 -106 281 -76 26 10 38 10 51 0 47
-33 83 -46 152 -54 41 -5 91 -12 111 -15 46 -6 191 36 243 72 20 14 39 25 41
25 19 0 127 87 149 121 27 40 28 48 27 145 -1 78 -6 113 -21 149 -30 71 -88
153 -153 220 -53 55 -56 60 -35 63 91 11 261 75 356 134 37 23 90 53 117 68
28 14 62 33 77 44 23 15 33 16 59 7 18 -6 87 -11 154 -11 97 0 143 5 219 25
117 29 248 69 335 103 35 13 89 30 120 38 31 8 90 29 131 46 101 41 230 89
258 95 21 5 22 2 22 -51 0 -62 30 -132 94 -216 42 -54 43 -63 11 -84 -13 -9
-43 -43 -65 -77 -23 -33 -47 -58 -53 -56 -7 2 -22 30 -35 63 -36 93 -75 164
-104 189 -24 20 -34 22 -95 18 -81 -6 -100 -20 -139 -102 -20 -42 -29 -79 -35
-146 -9 -120 -19 -157 -62 -242 -31 -61 -37 -83 -37 -136 0 -35 -5 -88 -11
-118 -9 -47 -8 -61 10 -107 49 -124 130 -206 271 -274 109 -53 146 -61 255
-61 120 1 211 16 238 41 12 11 50 34 83 50 34 17 81 47 105 67 24 20 87 63
139 97 52 33 120 83 150 112 121 111 203 166 248 166 9 0 25 -11 37 -24 20
-23 155 -73 260 -96 40 -9 269 -40 298 -40 4 0 7 561 7 1246 l0 1247 -40 72
c-22 39 -47 103 -55 141 -27 114 -135 484 -161 550 -27 68 -138 271 -181 331
-77 108 -89 123 -105 128 -10 4 -46 48 -80 98 -182 268 -460 452 -818 540
-201 50 -277 55 -635 47z m-570 -776 c70 -150 128 -229 279 -380 127 -126 317
-289 429 -368 23 -16 109 -77 192 -135 173 -123 311 -207 445 -273 52 -26 136
-78 185 -115 86 -65 92 -72 135 -160 25 -51 54 -103 66 -115 55 -61 84 -121
84 -172 -1 -54 -25 -139 -59 -203 -11 -21 -30 -58 -42 -83 -27 -57 -104 -153
-166 -207 -124 -108 -170 -142 -222 -163 -31 -13 -92 -38 -136 -56 -44 -18
-129 -51 -190 -74 -60 -23 -148 -57 -195 -77 -47 -19 -107 -41 -135 -48 -27
-8 -77 -24 -110 -35 -33 -12 -82 -28 -110 -36 -27 -7 -68 -20 -90 -28 -49 -18
-161 -49 -235 -66 -55 -12 -226 -9 -300 5 -19 4 -80 23 -134 43 -122 43 -184
92 -376 289 -252 260 -326 360 -358 481 l-19 72 78 0 c131 0 159 27 159 154 0
71 -2 77 -42 137 -57 83 -110 113 -190 105 l-57 -6 -7 36 c-4 20 -4 77 -2 126
3 50 1 106 -4 124 -9 33 -7 37 40 82 45 44 65 74 172 261 l42 73 25 -41 c30
-51 103 -91 165 -91 l43 0 -45 -26 c-68 -38 -89 -62 -126 -139 -32 -65 -34
-76 -34 -175 0 -120 12 -154 73 -203 66 -54 196 -42 273 25 38 34 135 213 159
293 22 78 20 196 -5 245 -33 64 -63 74 -231 80 -126 4 -150 8 -168 24 -24 22
-28 79 -9 121 9 19 8 30 -1 49 -11 20 -9 31 17 83 17 33 67 100 111 149 45 49
118 132 163 184 121 139 260 275 304 299 22 11 57 20 79 20 l40 1 40 -86z
m-426 -1062 c-4 -73 -8 -88 -62 -196 -32 -64 -68 -123 -80 -130 -12 -8 -43
-21 -69 -27 -47 -13 -48 -12 -78 16 -29 28 -30 32 -30 115 0 74 4 94 28 141
26 53 30 55 152 116 74 38 128 59 133 54 5 -5 8 -45 6 -89z m-547 -592 c34
-36 38 -47 38 -90 l0 -50 -37 0 c-32 0 -41 5 -55 30 -9 16 -28 32 -42 36 -30
7 -33 26 -11 78 21 51 55 49 107 -4z m-460 -619 c58 -28 133 -93 153 -132 23
-43 18 -43 -21 1 -66 72 -181 140 -239 140 -43 0 -127 -41 -149 -72 -11 -15
-16 -45 -16 -91 0 -59 3 -71 25 -92 13 -14 36 -25 50 -25 15 0 25 -6 25 -14 0
-21 47 -74 81 -91 42 -22 151 -19 198 5 47 24 81 64 81 97 0 14 4 21 10 18 6
-3 10 -48 10 -100 0 -52 5 -116 11 -142 54 -237 100 -320 168 -307 22 5 39 -7
116 -83 205 -202 265 -289 265 -385 0 -27 5 -69 11 -94 15 -59 17 -57 -186
-149 -16 -7 -60 -23 -98 -35 -55 -18 -73 -20 -99 -11 -17 6 -54 11 -83 11 -29
0 -60 6 -71 14 -18 14 -17 17 37 73 31 32 66 76 79 98 43 73 46 75 88 54 41
-21 122 -25 140 -7 15 15 15 61 0 76 -7 7 -26 12 -44 12 -46 0 -59 7 -89 46
l-26 34 20 26 c25 32 27 81 5 112 -19 27 -82 69 -118 78 -17 4 -26 13 -26 26
0 10 -6 32 -14 47 -18 33 -117 81 -191 92 -27 4 -82 16 -122 26 -77 19 -93 35
-93 92 0 29 -57 122 -142 232 -58 75 -110 235 -111 342 -1 44 21 66 88 91 63
24 217 17 277 -13z m-53 -114 c11 -10 7 -13 -25 -20 -21 -4 -52 -11 -67 -14
-24 -5 -28 -3 -25 13 7 40 79 52 117 21z m131 -118 c17 -39 5 -50 -58 -57 -52
-5 -92 9 -92 33 0 12 5 11 29 -3 26 -14 32 -15 55 -2 15 7 29 24 32 37 8 31
19 29 34 -8z m2907 -134 c-3 -19 -22 -61 -41 -92 -19 -32 -46 -87 -60 -123
-14 -36 -54 -119 -90 -185 -66 -121 -78 -163 -52 -184 19 -16 67 -10 77 9 4 8
27 53 50 100 23 47 52 101 64 120 12 19 30 58 40 85 22 61 58 101 127 142 66
39 98 49 98 31 0 -23 -45 -99 -133 -226 -48 -68 -99 -157 -117 -200 -17 -42
-38 -92 -47 -111 -23 -51 -8 -86 37 -86 30 0 37 5 56 40 11 23 29 65 39 95 25
78 57 130 101 166 58 46 143 70 159 44 3 -5 -13 -35 -37 -66 -24 -30 -60 -79
-80 -107 -21 -29 -77 -96 -125 -151 -49 -54 -89 -104 -91 -112 -5 -22 18 -54
39 -54 32 0 69 27 129 96 l55 62 138 1 c75 1 137 -1 137 -4 0 -3 -34 -21 -75
-39 -53 -25 -107 -63 -194 -138 -116 -100 -253 -196 -411 -288 -43 -25 -85
-52 -94 -59 -24 -20 -192 -30 -261 -16 -53 11 -185 76 -235 116 -22 18 -54 53
-70 79 -29 45 -30 51 -30 166 0 117 1 121 36 194 47 97 64 165 64 250 0 68 19
130 54 173 23 30 52 13 78 -46 12 -29 51 -108 85 -177 l63 -125 0 -127 c0
-134 -11 -180 -61 -247 -21 -29 -21 -31 -5 -55 9 -15 26 -26 37 -26 33 0 84
59 108 124 20 54 22 76 20 233 -2 164 -1 175 19 203 12 16 22 32 22 35 0 6 33
51 126 170 25 33 71 109 100 170 69 137 97 175 131 175 24 0 25 -3 20 -35z
m-2977 -491 c25 -8 61 -14 80 -14 19 -1 51 -9 69 -19 l35 -19 -45 -6 c-24 -4
-75 -11 -114 -17 -38 -6 -140 -13 -225 -15 -170 -5 -180 -2 -180 57 0 52 28
60 190 53 80 -4 165 -13 190 -20z m329 -189 c3 -3 -7 -17 -21 -32 -30 -29 -73
-40 -218 -52 -63 -5 -118 -17 -163 -35 -58 -22 -82 -26 -178 -26 -103 0 -111
1 -132 24 -13 13 -29 36 -36 50 -13 23 -12 28 4 45 16 18 35 21 204 25 222 6
427 19 436 27 6 7 93 -16 104 -26z m-69 -174 c0 -5 -6 -13 -12 -19 -20 -16
-160 -88 -188 -97 -14 -4 -49 -19 -79 -32 -43 -20 -63 -24 -100 -19 -25 4 -63
8 -85 9 -32 2 -44 9 -73 45 l-36 42 101 0 c88 0 111 4 179 30 58 23 95 30 148
31 38 0 79 4 90 9 27 11 55 12 55 1z m-85 -196 c-86 -75 -167 -109 -204 -86
-16 11 13 28 106 62 32 12 71 31 88 41 48 29 53 21 10 -17z"/>
<path d="M2707 3352 c-25 -27 -21 -42 22 -109 58 -90 98 -110 266 -133 93 -13
154 -26 162 -34 4 -3 -20 -30 -53 -58 -140 -124 -154 -148 -154 -277 0 -178
78 -291 199 -291 83 0 209 90 255 182 23 47 26 64 26 164 0 107 -1 114 -35
180 -79 157 -154 204 -380 234 -143 19 -153 24 -233 129 -27 35 -51 39 -75 13z
m593 -412 c27 -54 30 -68 30 -157 l0 -97 -64 -62 c-98 -96 -149 -97 -197 -2
-26 51 -27 182 -1 218 33 49 164 159 189 160 7 0 26 -27 43 -60z"/>
<path d="M3620 2460 c-8 -5 -29 -10 -46 -10 -45 0 -133 -49 -168 -93 -29 -36
-31 -45 -31 -119 0 -77 1 -80 31 -106 17 -15 41 -43 52 -62 37 -62 83 -80 209
-80 96 0 115 3 159 25 72 36 117 106 122 190 4 56 1 70 -22 109 -24 41 -108
116 -163 144 -26 14 -122 15 -143 2z m151 -136 c27 -20 54 -44 59 -54 15 -29
12 -93 -6 -120 -31 -46 -43 -50 -155 -50 -118 0 -116 -1 -143 72 -9 25 -24 52
-32 58 -42 36 4 94 86 110 29 6 56 12 58 15 3 3 23 5 45 5 29 0 52 -9 88 -36z"/>
<path d="M2800 2379 c-91 -37 -140 -191 -91 -287 37 -73 164 -182 259 -223 18
-8 31 -20 30 -28 -2 -8 -37 -32 -78 -53 -83 -43 -67 -42 -310 -20 -245 23
-328 46 -508 144 -90 48 -212 148 -212 173 0 16 -33 45 -52 45 -22 0 -48 -33
-48 -62 0 -114 369 -337 626 -379 74 -12 207 -25 342 -35 139 -10 249 39 349
158 62 73 83 133 83 241 0 96 -22 149 -92 224 -77 81 -138 113 -213 112 -33 0
-71 -5 -85 -10z m148 -113 c38 -20 109 -95 121 -129 6 -16 11 -62 11 -103 0
-73 -1 -74 -25 -74 -55 0 -162 70 -227 149 -32 38 -37 94 -13 141 14 27 21 30
61 30 25 0 57 -6 72 -14z"/>
</g>
</svg>
